solid Dual Axle2
facet normal 0.0 0.0 -1.0
  outer loop
    vertex 55.709562323256975 6.095999999999999 0.0
    vertex 49.71183492325698 0.0 0.0
    vertex 49.71183492325698 6.095999999999999 0.0
  endloop
endfacet
facet normal 0.0 0.0 -1.0
  outer loop
    vertex 49.71183492325698 0.0 0.0
    vertex 55.709562323256975 6.095999999999999 0.0
    vertex 55.709562323256975 0.0 0.0
  endloop
endfacet
facet normal -0.0 -0.0 1.0
  outer loop
    vertex 49.71183492325698 0.0 12.7
    vertex 51.27385764388591 1.611159020628934 12.7
    vertex 49.71183492325698 3.0479999999999996 12.7
  endloop
endfacet
facet normal -0.0 -0.0 1.0
  outer loop
    vertex 51.27385764388591 1.611159020628934 12.7
    vertex 49.71183492325698 0.0 12.7
    vertex 51.694698623256976 1.2882363795100198 12.7
  endloop
endfacet
facet normal -0.0 -0.0 1.0
  outer loop
    vertex 51.694698623256976 1.2882363795100198 12.7
    vertex 49.71183492325698 0.0 12.7
    vertex 52.184778323608654 1.0852387209806125 12.7
  endloop
endfacet
facet normal -0.0 -0.0 1.0
  outer loop
    vertex 52.184778323608654 1.0852387209806125 12.7
    vertex 49.71183492325698 0.0 12.7
    vertex 55.709562323256975 0.0 12.7
  endloop
endfacet
facet normal -0.0 -0.0 1.0
  outer loop
    vertex 49.71183492325698 3.0479999999999996 12.7
    vertex 51.27385764388591 1.611159020628934 12.7
    vertex 50.950935002767 2.0319999999999987 12.7
  endloop
endfacet
facet normal -0.0 -0.0 1.0
  outer loop
    vertex 49.71183492325698 3.0479999999999996 12.7
    vertex 50.950935002767 2.0319999999999987 12.7
    vertex 50.747937344237585 2.522079700351676 12.7
  endloop
endfacet
facet normal -0.0 -0.0 1.0
  outer loop
    vertex 49.71183492325698 3.0479999999999996 12.7
    vertex 50.747937344237585 2.522079700351676 12.7
    vertex 50.67869862325697 3.047999999999999 12.7
  endloop
endfacet
facet normal -0.0 -0.0 1.0
  outer loop
    vertex 52.184778323608654 1.0852387209806125 12.7
    vertex 55.709562323256975 0.0 12.7
    vertex 52.710698623256974 1.0159999999999993 12.7
  endloop
endfacet
facet normal -0.0 -0.0 1.0
  outer loop
    vertex 52.710698623256974 1.0159999999999993 12.7
    vertex 55.709562323256975 0.0 12.7
    vertex 53.23661892290529 1.085238720980613 12.7
  endloop
endfacet
facet normal -0.0 -0.0 1.0
  outer loop
    vertex 53.23661892290529 1.085238720980613 12.7
    vertex 55.709562323256975 0.0 12.7
    vertex 53.72669862325697 1.2882363795100205 12.7
  endloop
endfacet
facet normal -0.0 -0.0 1.0
  outer loop
    vertex 53.72669862325697 1.2882363795100205 12.7
    vertex 55.709562323256975 0.0 12.7
    vertex 54.14753960262803 1.611159020628935 12.7
  endloop
endfacet
facet normal -0.0 -0.0 1.0
  outer loop
    vertex 54.14753960262803 1.611159020628935 12.7
    vertex 55.709562323256975 0.0 12.7
    vertex 54.47046224374695 2.0320000000000005 12.7
  endloop
endfacet
facet normal -0.0 -0.0 1.0
  outer loop
    vertex 54.47046224374695 2.0320000000000005 12.7
    vertex 55.709562323256975 0.0 12.7
    vertex 54.67345990227636 2.5220797003516777 12.7
  endloop
endfacet
facet normal -0.0 -0.0 1.0
  outer loop
    vertex 54.67345990227636 2.5220797003516777 12.7
    vertex 55.709562323256975 0.0 12.7
    vertex 54.74269862325698 3.0479999999999996 12.7
  endloop
endfacet
facet normal -0.0 -0.0 1.0
  outer loop
    vertex 54.74269862325698 3.0479999999999996 12.7
    vertex 55.709562323256975 0.0 12.7
    vertex 55.709562323256975 3.0479999999999996 12.7
  endloop
endfacet
facet normal -0.0 -1.0 -0.0
  outer loop
    vertex 55.709562323256975 0.0 12.7
    vertex 49.71183492325698 0.0 0.0
    vertex 55.709562323256975 0.0 0.0
  endloop
endfacet
facet normal -0.0 -1.0 -0.0
  outer loop
    vertex 49.71183492325698 0.0 0.0
    vertex 55.709562323256975 0.0 12.7
    vertex 49.71183492325698 0.0 12.7
  endloop
endfacet
facet normal -1.0 0.0 0.0
  outer loop
    vertex 49.71183492325698 3.0479999999999996 12.7
    vertex 49.71183492325698 0.0 0.0
    vertex 49.71183492325698 0.0 12.7
  endloop
endfacet
facet normal -1.0 0.0 0.0
  outer loop
    vertex 49.71183492325698 0.0 0.0
    vertex 49.71183492325698 3.0479999999999996 12.7
    vertex 49.71183492325698 6.095999999999999 0.0
  endloop
endfacet
facet normal -1.0 0.0 0.0
  outer loop
    vertex 49.71183492325698 6.095999999999999 0.0
    vertex 49.71183492325698 3.0479999999999996 12.7
    vertex 49.71183492325698 6.095999999999999 12.7
  endloop
endfacet
facet normal -0.0 1.0 -0.0
  outer loop
    vertex 49.71183492325698 6.095999999999999 12.7
    vertex 55.709562323256975 6.095999999999999 0.0
    vertex 49.71183492325698 6.095999999999999 0.0
  endloop
endfacet
facet normal -0.0 1.0 -0.0
  outer loop
    vertex 55.709562323256975 6.095999999999999 0.0
    vertex 49.71183492325698 6.095999999999999 12.7
    vertex 55.709562323256975 6.095999999999999 12.7
  endloop
endfacet
facet normal 1.0 0.0 0.0
  outer loop
    vertex 55.709562323256975 6.095999999999999 0.0
    vertex 55.709562323256975 0.0 12.7
    vertex 55.709562323256975 0.0 0.0
  endloop
endfacet
facet normal 1.0 0.0 0.0
  outer loop
    vertex 55.709562323256975 0.0 12.7
    vertex 55.709562323256975 6.095999999999999 0.0
    vertex 55.709562323256975 3.0479999999999996 12.7
  endloop
endfacet
facet normal 1.0 0.0 0.0
  outer loop
    vertex 55.709562323256975 3.0479999999999996 12.7
    vertex 55.709562323256975 6.095999999999999 0.0
    vertex 55.709562323256975 6.095999999999999 12.7
  endloop
endfacet
facet normal -0.0 -0.0 1.0
  outer loop
    vertex 50.67869862325697 3.047999999999999 12.7
    vertex 49.71183492325698 6.095999999999999 12.7
    vertex 49.71183492325698 3.0479999999999996 12.7
  endloop
endfacet
facet normal -0.0 -0.0 1.0
  outer loop
    vertex 49.71183492325698 6.095999999999999 12.7
    vertex 50.67869862325697 3.047999999999999 12.7
    vertex 50.747937344237585 3.573920299648321 12.7
  endloop
endfacet
facet normal -0.0 -0.0 1.0
  outer loop
    vertex 49.71183492325698 6.095999999999999 12.7
    vertex 50.747937344237585 3.573920299648321 12.7
    vertex 50.950935002767 4.063999999999998 12.7
  endloop
endfacet
facet normal -0.0 -0.0 1.0
  outer loop
    vertex 49.71183492325698 6.095999999999999 12.7
    vertex 50.950935002767 4.063999999999998 12.7
    vertex 51.273857643885904 4.484840979371064 12.7
  endloop
endfacet
facet normal -0.0 -0.0 1.0
  outer loop
    vertex 49.71183492325698 6.095999999999999 12.7
    vertex 51.273857643885904 4.484840979371064 12.7
    vertex 51.694698623256976 4.807763620489979 12.7
  endloop
endfacet
facet normal -0.0 -0.0 1.0
  outer loop
    vertex 49.71183492325698 6.095999999999999 12.7
    vertex 51.694698623256976 4.807763620489979 12.7
    vertex 52.184778323608654 5.010761279019387 12.7
  endloop
endfacet
facet normal -0.0 -0.0 1.0
  outer loop
    vertex 49.71183492325698 6.095999999999999 12.7
    vertex 52.184778323608654 5.010761279019387 12.7
    vertex 55.709562323256975 6.095999999999999 12.7
  endloop
endfacet
facet normal -0.0 -0.0 1.0
  outer loop
    vertex 55.709562323256975 6.095999999999999 12.7
    vertex 52.184778323608654 5.010761279019387 12.7
    vertex 52.710698623256974 5.08 12.7
  endloop
endfacet
facet normal -0.0 -0.0 1.0
  outer loop
    vertex 55.709562323256975 6.095999999999999 12.7
    vertex 52.710698623256974 5.08 12.7
    vertex 53.23661892290529 5.010761279019387 12.7
  endloop
endfacet
facet normal -0.0 -0.0 1.0
  outer loop
    vertex 55.709562323256975 6.095999999999999 12.7
    vertex 53.23661892290529 5.010761279019387 12.7
    vertex 53.72669862325697 4.807763620489979 12.7
  endloop
endfacet
facet normal -0.0 -0.0 1.0
  outer loop
    vertex 55.709562323256975 6.095999999999999 12.7
    vertex 53.72669862325697 4.807763620489979 12.7
    vertex 54.14753960262803 4.484840979371064 12.7
  endloop
endfacet
facet normal -0.0 -0.0 1.0
  outer loop
    vertex 55.709562323256975 6.095999999999999 12.7
    vertex 54.14753960262803 4.484840979371064 12.7
    vertex 54.47046224374695 4.064 12.7
  endloop
endfacet
facet normal -0.0 -0.0 1.0
  outer loop
    vertex 55.709562323256975 6.095999999999999 12.7
    vertex 54.47046224374695 4.064 12.7
    vertex 54.673459902276356 3.5739202996483224 12.7
  endloop
endfacet
facet normal -0.0 -0.0 1.0
  outer loop
    vertex 55.709562323256975 6.095999999999999 12.7
    vertex 54.673459902276356 3.5739202996483224 12.7
    vertex 54.74269862325698 3.0479999999999996 12.7
  endloop
endfacet
facet normal -0.0 -0.0 1.0
  outer loop
    vertex 55.709562323256975 6.095999999999999 12.7
    vertex 54.74269862325698 3.0479999999999996 12.7
    vertex 55.709562323256975 3.0479999999999996 12.7
  endloop
endfacet
facet normal 0.0 0.0 1.0
  outer loop
    vertex 50.747937344237585 2.522079700351676 38.099999999999994
    vertex 50.747937344237585 3.573920299648321 38.099999999999994
    vertex 50.67869862325697 3.047999999999999 38.099999999999994
  endloop
endfacet
facet normal 0.0 0.0 1.0
  outer loop
    vertex 50.747937344237585 3.573920299648321 38.099999999999994
    vertex 50.747937344237585 2.522079700351676 38.099999999999994
    vertex 50.950935002767 2.0319999999999987 38.099999999999994
  endloop
endfacet
facet normal 0.0 0.0 1.0
  outer loop
    vertex 50.747937344237585 3.573920299648321 38.099999999999994
    vertex 50.950935002767 2.0319999999999987 38.099999999999994
    vertex 50.950935002767 4.063999999999998 38.099999999999994
  endloop
endfacet
facet normal 0.0 0.0 1.0
  outer loop
    vertex 50.950935002767 4.063999999999998 38.099999999999994
    vertex 50.950935002767 2.0319999999999987 38.099999999999994
    vertex 51.27385764388591 1.611159020628934 38.099999999999994
  endloop
endfacet
facet normal 0.0 0.0 1.0
  outer loop
    vertex 50.950935002767 4.063999999999998 38.099999999999994
    vertex 51.27385764388591 1.611159020628934 38.099999999999994
    vertex 51.273857643885904 4.484840979371064 38.099999999999994
  endloop
endfacet
facet normal 0.0 0.0 1.0
  outer loop
    vertex 51.273857643885904 4.484840979371064 38.099999999999994
    vertex 51.27385764388591 1.611159020628934 38.099999999999994
    vertex 51.694698623256976 4.807763620489979 38.099999999999994
  endloop
endfacet
facet normal 0.0 0.0 1.0
  outer loop
    vertex 51.694698623256976 4.807763620489979 38.099999999999994
    vertex 51.27385764388591 1.611159020628934 38.099999999999994
    vertex 51.694698623256976 1.2882363795100198 38.099999999999994
  endloop
endfacet
facet normal 0.0 0.0 1.0
  outer loop
    vertex 51.694698623256976 4.807763620489979 38.099999999999994
    vertex 51.694698623256976 1.2882363795100198 38.099999999999994
    vertex 52.184778323608654 1.0852387209806125 38.099999999999994
  endloop
endfacet
facet normal 0.0 0.0 1.0
  outer loop
    vertex 51.694698623256976 4.807763620489979 38.099999999999994
    vertex 52.184778323608654 1.0852387209806125 38.099999999999994
    vertex 52.184778323608654 5.010761279019387 38.099999999999994
  endloop
endfacet
facet normal 0.0 0.0 1.0
  outer loop
    vertex 52.184778323608654 5.010761279019387 38.099999999999994
    vertex 52.184778323608654 1.0852387209806125 38.099999999999994
    vertex 52.710698623256974 1.0159999999999993 38.099999999999994
  endloop
endfacet
facet normal 0.0 0.0 1.0
  outer loop
    vertex 52.184778323608654 5.010761279019387 38.099999999999994
    vertex 52.710698623256974 1.0159999999999993 38.099999999999994
    vertex 52.710698623256974 5.08 38.099999999999994
  endloop
endfacet
facet normal 0.0 0.0 1.0
  outer loop
    vertex 52.710698623256974 5.08 38.099999999999994
    vertex 52.710698623256974 1.0159999999999993 38.099999999999994
    vertex 53.23661892290529 1.085238720980613 38.099999999999994
  endloop
endfacet
facet normal 0.0 0.0 1.0
  outer loop
    vertex 52.710698623256974 5.08 38.099999999999994
    vertex 53.23661892290529 1.085238720980613 38.099999999999994
    vertex 53.23661892290529 5.010761279019387 38.099999999999994
  endloop
endfacet
facet normal 0.0 0.0 1.0
  outer loop
    vertex 53.23661892290529 5.010761279019387 38.099999999999994
    vertex 53.23661892290529 1.085238720980613 38.099999999999994
    vertex 53.72669862325697 1.2882363795100205 38.099999999999994
  endloop
endfacet
facet normal 0.0 0.0 1.0
  outer loop
    vertex 53.23661892290529 5.010761279019387 38.099999999999994
    vertex 53.72669862325697 1.2882363795100205 38.099999999999994
    vertex 53.72669862325697 4.807763620489979 38.099999999999994
  endloop
endfacet
facet normal 0.0 0.0 1.0
  outer loop
    vertex 53.72669862325697 4.807763620489979 38.099999999999994
    vertex 53.72669862325697 1.2882363795100205 38.099999999999994
    vertex 54.14753960262803 1.611159020628935 38.099999999999994
  endloop
endfacet
facet normal 0.0 0.0 1.0
  outer loop
    vertex 53.72669862325697 4.807763620489979 38.099999999999994
    vertex 54.14753960262803 1.611159020628935 38.099999999999994
    vertex 54.14753960262803 4.484840979371064 38.099999999999994
  endloop
endfacet
facet normal 0.0 0.0 1.0
  outer loop
    vertex 54.14753960262803 4.484840979371064 38.099999999999994
    vertex 54.14753960262803 1.611159020628935 38.099999999999994
    vertex 54.47046224374695 2.0320000000000005 38.099999999999994
  endloop
endfacet
facet normal 0.0 0.0 1.0
  outer loop
    vertex 54.14753960262803 4.484840979371064 38.099999999999994
    vertex 54.47046224374695 2.0320000000000005 38.099999999999994
    vertex 54.47046224374695 4.064 38.099999999999994
  endloop
endfacet
facet normal 0.0 0.0 1.0
  outer loop
    vertex 54.47046224374695 4.064 38.099999999999994
    vertex 54.47046224374695 2.0320000000000005 38.099999999999994
    vertex 54.67345990227636 2.5220797003516777 38.099999999999994
  endloop
endfacet
facet normal 0.0 0.0 1.0
  outer loop
    vertex 54.47046224374695 4.064 38.099999999999994
    vertex 54.67345990227636 2.5220797003516777 38.099999999999994
    vertex 54.673459902276356 3.5739202996483224 38.099999999999994
  endloop
endfacet
facet normal 0.0 0.0 1.0
  outer loop
    vertex 54.673459902276356 3.5739202996483224 38.099999999999994
    vertex 54.67345990227636 2.5220797003516777 38.099999999999994
    vertex 54.74269862325698 3.0479999999999996 38.099999999999994
  endloop
endfacet
facet normal 0.9914448613738115 -0.13052619222004358 0.0
  outer loop
    vertex 54.74269862325698 3.0479999999999996 12.7
    vertex 54.67345990227636 2.5220797003516777 38.099999999999994
    vertex 54.67345990227636 2.5220797003516777 12.7
  endloop
endfacet
facet normal 0.9914448613738115 -0.13052619222004358 0.0
  outer loop
    vertex 54.67345990227636 2.5220797003516777 38.099999999999994
    vertex 54.74269862325698 3.0479999999999996 12.7
    vertex 54.74269862325698 3.0479999999999996 38.099999999999994
  endloop
endfacet
facet normal 0.9914448613738089 0.1305261922200643 0.0
  outer loop
    vertex 54.673459902276356 3.5739202996483224 12.7
    vertex 54.74269862325698 3.0479999999999996 38.099999999999994
    vertex 54.74269862325698 3.0479999999999996 12.7
  endloop
endfacet
facet normal 0.9914448613738089 0.1305261922200643 0.0
  outer loop
    vertex 54.74269862325698 3.0479999999999996 38.099999999999994
    vertex 54.673459902276356 3.5739202996483224 12.7
    vertex 54.673459902276356 3.5739202996483224 38.099999999999994
  endloop
endfacet
facet normal 0.9238795325112882 0.38268343236508634 0.0
  outer loop
    vertex 54.47046224374695 4.064 12.7
    vertex 54.673459902276356 3.5739202996483224 38.099999999999994
    vertex 54.673459902276356 3.5739202996483224 12.7
  endloop
endfacet
facet normal 0.9238795325112882 0.38268343236508634 0.0
  outer loop
    vertex 54.673459902276356 3.5739202996483224 38.099999999999994
    vertex 54.47046224374695 4.064 12.7
    vertex 54.47046224374695 4.064 38.099999999999994
  endloop
endfacet
facet normal 0.7933533402912334 0.608761429008723 0.0
  outer loop
    vertex 54.14753960262803 4.484840979371064 12.7
    vertex 54.47046224374695 4.064 38.099999999999994
    vertex 54.47046224374695 4.064 12.7
  endloop
endfacet
facet normal 0.7933533402912334 0.608761429008723 0.0
  outer loop
    vertex 54.47046224374695 4.064 38.099999999999994
    vertex 54.14753960262803 4.484840979371064 12.7
    vertex 54.14753960262803 4.484840979371064 38.099999999999994
  endloop
endfacet
facet normal 0.6087614290087255 0.7933533402912316 0.0
  outer loop
    vertex 53.72669862325697 4.807763620489979 38.099999999999994
    vertex 54.14753960262803 4.484840979371064 12.7
    vertex 53.72669862325697 4.807763620489979 12.7
  endloop
endfacet
facet normal 0.6087614290087255 0.7933533402912316 0.0
  outer loop
    vertex 54.14753960262803 4.484840979371064 12.7
    vertex 53.72669862325697 4.807763620489979 38.099999999999994
    vertex 54.14753960262803 4.484840979371064 38.099999999999994
  endloop
endfacet
facet normal 0.38268343236508995 0.9238795325112867 0.0
  outer loop
    vertex 53.23661892290529 5.010761279019387 38.099999999999994
    vertex 53.72669862325697 4.807763620489979 12.7
    vertex 53.23661892290529 5.010761279019387 12.7
  endloop
endfacet
facet normal 0.38268343236508995 0.9238795325112867 0.0
  outer loop
    vertex 53.72669862325697 4.807763620489979 12.7
    vertex 53.23661892290529 5.010761279019387 38.099999999999994
    vertex 53.72669862325697 4.807763620489979 38.099999999999994
  endloop
endfacet
facet normal 0.1305261922200514 0.9914448613738105 0.0
  outer loop
    vertex 52.710698623256974 5.08 38.099999999999994
    vertex 53.23661892290529 5.010761279019387 12.7
    vertex 52.710698623256974 5.08 12.7
  endloop
endfacet
facet normal 0.1305261922200514 0.9914448613738105 0.0
  outer loop
    vertex 53.23661892290529 5.010761279019387 12.7
    vertex 52.710698623256974 5.08 38.099999999999994
    vertex 53.23661892290529 5.010761279019387 38.099999999999994
  endloop
endfacet
facet normal -0.1305261922200514 0.9914448613738105 0.0
  outer loop
    vertex 52.184778323608654 5.010761279019387 38.099999999999994
    vertex 52.710698623256974 5.08 12.7
    vertex 52.184778323608654 5.010761279019387 12.7
  endloop
endfacet
facet normal -0.1305261922200514 0.9914448613738105 0.0
  outer loop
    vertex 52.710698623256974 5.08 12.7
    vertex 52.184778323608654 5.010761279019387 38.099999999999994
    vertex 52.710698623256974 5.08 38.099999999999994
  endloop
endfacet
facet normal -0.38268343236508995 0.9238795325112867 0.0
  outer loop
    vertex 51.694698623256976 4.807763620489979 38.099999999999994
    vertex 52.184778323608654 5.010761279019387 12.7
    vertex 51.694698623256976 4.807763620489979 12.7
  endloop
endfacet
facet normal -0.38268343236508995 0.9238795325112867 0.0
  outer loop
    vertex 52.184778323608654 5.010761279019387 12.7
    vertex 51.694698623256976 4.807763620489979 38.099999999999994
    vertex 52.184778323608654 5.010761279019387 38.099999999999994
  endloop
endfacet
facet normal -0.6087614290087161 0.7933533402912388 0.0
  outer loop
    vertex 51.273857643885904 4.484840979371064 38.099999999999994
    vertex 51.694698623256976 4.807763620489979 12.7
    vertex 51.273857643885904 4.484840979371064 12.7
  endloop
endfacet
facet normal -0.6087614290087161 0.7933533402912388 0.0
  outer loop
    vertex 51.694698623256976 4.807763620489979 12.7
    vertex 51.273857643885904 4.484840979371064 38.099999999999994
    vertex 51.694698623256976 4.807763620489979 38.099999999999994
  endloop
endfacet
facet normal -0.7933533402912442 0.608761429008709 0.0
  outer loop
    vertex 51.273857643885904 4.484840979371064 38.099999999999994
    vertex 50.950935002767 4.063999999999998 12.7
    vertex 50.950935002767 4.063999999999998 38.099999999999994
  endloop
endfacet
facet normal -0.7933533402912442 0.608761429008709 0.0
  outer loop
    vertex 50.950935002767 4.063999999999998 12.7
    vertex 51.273857643885904 4.484840979371064 38.099999999999994
    vertex 51.273857643885904 4.484840979371064 12.7
  endloop
endfacet
facet normal -0.9238795325112844 0.3826834323650954 0.0
  outer loop
    vertex 50.950935002767 4.063999999999998 38.099999999999994
    vertex 50.747937344237585 3.573920299648321 12.7
    vertex 50.747937344237585 3.573920299648321 38.099999999999994
  endloop
endfacet
facet normal -0.9238795325112844 0.3826834323650954 0.0
  outer loop
    vertex 50.747937344237585 3.573920299648321 12.7
    vertex 50.950935002767 4.063999999999998 38.099999999999994
    vertex 50.950935002767 4.063999999999998 12.7
  endloop
endfacet
facet normal -0.99144486137381 0.1305261922200541 0.0
  outer loop
    vertex 50.747937344237585 3.573920299648321 38.099999999999994
    vertex 50.67869862325697 3.047999999999999 12.7
    vertex 50.67869862325697 3.047999999999999 38.099999999999994
  endloop
endfacet
facet normal -0.99144486137381 0.1305261922200541 0.0
  outer loop
    vertex 50.67869862325697 3.047999999999999 12.7
    vertex 50.747937344237585 3.573920299648321 38.099999999999994
    vertex 50.747937344237585 3.573920299648321 12.7
  endloop
endfacet
facet normal -0.9914448613738102 -0.13052619222005368 -0.0
  outer loop
    vertex 50.67869862325697 3.047999999999999 38.099999999999994
    vertex 50.747937344237585 2.522079700351676 12.7
    vertex 50.747937344237585 2.522079700351676 38.099999999999994
  endloop
endfacet
facet normal -0.9914448613738102 -0.13052619222005368 -0.0
  outer loop
    vertex 50.747937344237585 2.522079700351676 12.7
    vertex 50.67869862325697 3.047999999999999 38.099999999999994
    vertex 50.67869862325697 3.047999999999999 12.7
  endloop
endfacet
facet normal -0.9238795325112844 -0.38268343236509567 -0.0
  outer loop
    vertex 50.747937344237585 2.522079700351676 38.099999999999994
    vertex 50.950935002767 2.0319999999999987 12.7
    vertex 50.950935002767 2.0319999999999987 38.099999999999994
  endloop
endfacet
facet normal -0.9238795325112844 -0.38268343236509567 -0.0
  outer loop
    vertex 50.950935002767 2.0319999999999987 12.7
    vertex 50.747937344237585 2.522079700351676 38.099999999999994
    vertex 50.747937344237585 2.522079700351676 12.7
  endloop
endfacet
facet normal -0.7933533402912334 -0.608761429008723 -0.0
  outer loop
    vertex 50.950935002767 2.0319999999999987 38.099999999999994
    vertex 51.27385764388591 1.611159020628934 12.7
    vertex 51.27385764388591 1.611159020628934 38.099999999999994
  endloop
endfacet
facet normal -0.7933533402912334 -0.608761429008723 -0.0
  outer loop
    vertex 51.27385764388591 1.611159020628934 12.7
    vertex 50.950935002767 2.0319999999999987 38.099999999999994
    vertex 50.950935002767 2.0319999999999987 12.7
  endloop
endfacet
facet normal -0.6087614290087255 -0.7933533402912316 -0.0
  outer loop
    vertex 51.694698623256976 1.2882363795100198 38.099999999999994
    vertex 51.27385764388591 1.611159020628934 12.7
    vertex 51.694698623256976 1.2882363795100198 12.7
  endloop
endfacet
facet normal -0.6087614290087255 -0.7933533402912316 -0.0
  outer loop
    vertex 51.27385764388591 1.611159020628934 12.7
    vertex 51.694698623256976 1.2882363795100198 38.099999999999994
    vertex 51.27385764388591 1.611159020628934 38.099999999999994
  endloop
endfacet
facet normal -0.3826834323650888 -0.9238795325112872 -0.0
  outer loop
    vertex 52.184778323608654 1.0852387209806125 38.099999999999994
    vertex 51.694698623256976 1.2882363795100198 12.7
    vertex 52.184778323608654 1.0852387209806125 12.7
  endloop
endfacet
facet normal -0.3826834323650888 -0.9238795325112872 -0.0
  outer loop
    vertex 51.694698623256976 1.2882363795100198 12.7
    vertex 52.184778323608654 1.0852387209806125 38.099999999999994
    vertex 51.694698623256976 1.2882363795100198 38.099999999999994
  endloop
endfacet
facet normal -0.1305261922200514 -0.9914448613738105 -0.0
  outer loop
    vertex 52.710698623256974 1.0159999999999993 38.099999999999994
    vertex 52.184778323608654 1.0852387209806125 12.7
    vertex 52.710698623256974 1.0159999999999993 12.7
  endloop
endfacet
facet normal -0.1305261922200514 -0.9914448613738105 -0.0
  outer loop
    vertex 52.184778323608654 1.0852387209806125 12.7
    vertex 52.710698623256974 1.0159999999999993 38.099999999999994
    vertex 52.184778323608654 1.0852387209806125 38.099999999999994
  endloop
endfacet
facet normal 0.13052619222005207 -0.9914448613738105 0.0
  outer loop
    vertex 53.23661892290529 1.085238720980613 38.099999999999994
    vertex 52.710698623256974 1.0159999999999993 12.7
    vertex 53.23661892290529 1.085238720980613 12.7
  endloop
endfacet
facet normal 0.13052619222005207 -0.9914448613738105 0.0
  outer loop
    vertex 52.710698623256974 1.0159999999999993 12.7
    vertex 53.23661892290529 1.085238720980613 38.099999999999994
    vertex 52.710698623256974 1.0159999999999993 38.099999999999994
  endloop
endfacet
facet normal 0.38268343236508945 -0.9238795325112871 0.0
  outer loop
    vertex 53.72669862325697 1.2882363795100205 38.099999999999994
    vertex 53.23661892290529 1.085238720980613 12.7
    vertex 53.72669862325697 1.2882363795100205 12.7
  endloop
endfacet
facet normal 0.38268343236508945 -0.9238795325112871 0.0
  outer loop
    vertex 53.23661892290529 1.085238720980613 12.7
    vertex 53.72669862325697 1.2882363795100205 38.099999999999994
    vertex 53.23661892290529 1.085238720980613 38.099999999999994
  endloop
endfacet
facet normal 0.6087614290087259 -0.7933533402912312 0.0
  outer loop
    vertex 54.14753960262803 1.611159020628935 38.099999999999994
    vertex 53.72669862325697 1.2882363795100205 12.7
    vertex 54.14753960262803 1.611159020628935 12.7
  endloop
endfacet
facet normal 0.6087614290087259 -0.7933533402912312 0.0
  outer loop
    vertex 53.72669862325697 1.2882363795100205 12.7
    vertex 54.14753960262803 1.611159020628935 38.099999999999994
    vertex 53.72669862325697 1.2882363795100205 38.099999999999994
  endloop
endfacet
facet normal 0.7933533402912337 -0.6087614290087228 0.0
  outer loop
    vertex 54.47046224374695 2.0320000000000005 12.7
    vertex 54.14753960262803 1.611159020628935 38.099999999999994
    vertex 54.14753960262803 1.611159020628935 12.7
  endloop
endfacet
facet normal 0.7933533402912337 -0.6087614290087228 0.0
  outer loop
    vertex 54.14753960262803 1.611159020628935 38.099999999999994
    vertex 54.47046224374695 2.0320000000000005 12.7
    vertex 54.47046224374695 2.0320000000000005 38.099999999999994
  endloop
endfacet
facet normal 0.9238795325112809 -0.3826834323651046 0.0
  outer loop
    vertex 54.67345990227636 2.5220797003516777 12.7
    vertex 54.47046224374695 2.0320000000000005 38.099999999999994
    vertex 54.47046224374695 2.0320000000000005 12.7
  endloop
endfacet
facet normal 0.9238795325112809 -0.3826834323651046 0.0
  outer loop
    vertex 54.47046224374695 2.0320000000000005 38.099999999999994
    vertex 54.67345990227636 2.5220797003516777 12.7
    vertex 54.67345990227636 2.5220797003516777 38.099999999999994
  endloop
endfacet
endsolid Dual Axle2
